<svg width="22" height="18" viewBox="0 0 22 18" fill="none" xmlns="http://www.w3.org/2000/svg">
<path fill-rule="evenodd" clip-rule="evenodd" d="M17.5 6H19.5V4H17.5V6ZM17.5 10H19.5V8H17.5V10ZM17.5 14H19.5V12H17.5V14ZM13.821 9.433L9.513 11.921C9.43692 11.9649 9.35061 11.988 9.26275 11.988C9.1749 11.9879 9.08861 11.9648 9.01257 11.9208C8.93653 11.8768 8.87343 11.8135 8.82962 11.7373C8.7858 11.6612 8.76283 11.5749 8.763 11.487V6.513C8.76283 6.42515 8.7858 6.3388 8.82962 6.26265C8.87343 6.18651 8.93653 6.12325 9.01257 6.07925C9.08861 6.03525 9.1749 6.01206 9.26275 6.01201C9.35061 6.01197 9.43692 6.03507 9.513 6.079L13.821 8.567C13.897 8.61089 13.9601 8.674 14.004 8.75001C14.0479 8.82602 14.071 8.91224 14.071 9C14.071 9.08776 14.0479 9.17398 14.004 9.24999C13.9601 9.326 13.897 9.38911 13.821 9.433ZM2.5 6H4.5V4H2.5V6ZM2.5 10H4.5V8H2.5V10ZM2.5 14H4.5V12H2.5V14ZM19.5 0.5H2.5C1.396 0.5 0.5 1.365 0.5 2.432V15.568C0.5 16.635 1.396 17.5 2.5 17.5H19.5C20.604 17.5 21.5 16.635 21.5 15.568V2.432C21.5 1.365 20.604 0.5 19.5 0.5Z" fill="#B0B8C1"/>
</svg>
