<svg width="24" height="24" viewBox="0 0 24 24" fill="none" xmlns="http://www.w3.org/2000/svg">
<path fill-rule="evenodd" clip-rule="evenodd" d="M18.3099 13.999L14.5399 8.922V3.56C14.8052 3.56 15.0595 3.45464 15.247 3.2671C15.4346 3.07957 15.5399 2.82521 15.5399 2.56C15.5399 2.29478 15.4346 2.04043 15.247 1.85289C15.0595 1.66535 14.8052 1.56 14.5399 1.56H9.45794C9.20046 1.57152 8.95735 1.6819 8.77922 1.86818C8.60109 2.05446 8.50167 2.30226 8.50167 2.56C8.50167 2.81773 8.60109 3.06554 8.77922 3.25182C8.95735 3.43809 9.20046 3.54848 9.45794 3.56V8.922L5.68994 13.999H18.3099Z" fill="#B0B8C1" fill-opacity="0.6"/>
<path fill-rule="evenodd" clip-rule="evenodd" d="M22.2039 19.246L18.3089 14H5.6889L1.7959 19.247C0.815898 20.567 1.7579 22.439 3.4009 22.439H20.5979C22.2409 22.439 23.1829 20.565 22.2039 19.246Z" fill="#B0B8C1"/>
</svg>
