<svg width="24" height="24" viewBox="0 0 24 24" fill="none" xmlns="http://www.w3.org/2000/svg">
<path fill-rule="evenodd" clip-rule="evenodd" d="M15.383 5.75801C16.183 4.95701 17.473 4.94801 18.263 5.73701C19.053 6.52701 19.043 7.81701 18.243 8.61701C17.441 9.41801 16.151 9.42701 15.361 8.63701C14.572 7.84901 14.581 6.56001 15.383 5.75801ZM10.749 4.38201C8.26498 6.86701 8.23598 10.867 10.685 13.316C13.133 15.764 17.133 15.736 19.617 13.251C22.102 10.766 22.131 6.76701 19.682 4.31801C17.233 1.86901 13.234 1.89801 10.749 4.38201Z" fill="#B0B8C1"/>
<path fill-rule="evenodd" clip-rule="evenodd" d="M7.81806 20.005L6.68006 18.866C6.60652 18.7925 6.54817 18.7053 6.50834 18.6093C6.46852 18.5133 6.448 18.4103 6.44795 18.3064C6.4479 18.2024 6.46833 18.0995 6.50807 18.0034C6.54781 17.9074 6.60608 17.8201 6.67956 17.7465C6.75303 17.673 6.84027 17.6146 6.9363 17.5748C7.03232 17.535 7.13525 17.5145 7.2392 17.5144C7.34316 17.5144 7.44611 17.5348 7.54216 17.5745C7.63822 17.6143 7.72552 17.6725 7.79906 17.746L8.93806 18.885L10.0571 17.766L8.91906 16.628C8.84552 16.5546 8.78716 16.4674 8.74731 16.3715C8.70746 16.2755 8.6869 16.1726 8.6868 16.0687C8.68671 15.9648 8.70709 15.8619 8.74676 15.7659C8.78644 15.6698 8.84465 15.5826 8.91806 15.509C8.99147 15.4355 9.07864 15.3771 9.1746 15.3373C9.27057 15.2974 9.37344 15.2769 9.47735 15.2768C9.58126 15.2767 9.68417 15.2971 9.7802 15.3367C9.87624 15.3764 9.96352 15.4346 10.0371 15.508L11.1771 16.646L14.7371 13.085L10.9141 9.26202L3.29206 16.885C2.78846 17.3928 2.50657 18.0795 2.50806 18.7947C2.50956 19.5099 2.79433 20.1953 3.30004 20.701C3.80575 21.2068 4.49122 21.4915 5.2064 21.493C5.92158 21.4945 6.60823 21.2126 7.11606 20.709L7.81806 20.005Z" fill="#B0B8C1"/>
</svg>
