<svg width="24" height="24" viewBox="0 0 24 24" fill="none" xmlns="http://www.w3.org/2000/svg">
<path fill-rule="evenodd" clip-rule="evenodd" d="M13.864 16.506C13.5288 16.6381 13.1805 16.7343 12.825 16.793V17.5C12.825 17.7188 12.7381 17.9286 12.5834 18.0834C12.4286 18.2381 12.2188 18.325 12 18.325C11.7812 18.325 11.5714 18.2381 11.4166 18.0834C11.2619 17.9286 11.175 17.7188 11.175 17.5V16.774C9.814 16.508 8.787 15.683 8.312 15.077C8.17661 14.905 8.11508 14.6863 8.14096 14.4689C8.16684 14.2516 8.27801 14.0534 8.45 13.918C8.62199 13.7826 8.84073 13.7211 9.05808 13.747C9.27544 13.7728 9.47361 13.884 9.609 14.056C9.677 14.14 11.084 15.839 13.253 14.973C13.771 14.766 14.099 14.355 14.049 13.974C13.994 13.553 13.398 12.998 11.901 12.818C8.838 12.451 8.382 10.751 8.314 10.239C8.165 9.091 8.896 7.987 10.135 7.493C10.4707 7.36084 10.8192 7.26398 11.175 7.204V6.5C11.1854 6.28822 11.2769 6.08857 11.4305 5.94237C11.5841 5.79617 11.788 5.71463 12 5.71463C12.212 5.71463 12.4159 5.79617 12.5695 5.94237C12.7231 6.08857 12.8146 6.28822 12.825 6.5V7.216C14.002 7.448 14.86 8.099 15.276 8.486C15.4362 8.63505 15.5306 8.84163 15.5385 9.0603C15.5464 9.27897 15.4671 9.49181 15.318 9.652C15.1689 9.81219 14.9624 9.90661 14.7437 9.91449C14.525 9.92236 14.3122 9.84305 14.152 9.694C13.583 9.165 12.383 8.373 10.747 9.026C10.228 9.233 9.901 9.644 9.951 10.026C10.006 10.446 10.601 11.001 12.098 11.18C15.162 11.548 15.618 13.248 15.685 13.76C15.835 14.908 15.103 16.011 13.864 16.506ZM12 1C5.925 1 1 5.924 1 12C1 18.075 5.925 23 12 23C18.075 23 23 18.075 23 12C23 5.924 18.075 1 12 1Z" fill="#B0B8C1"/>
</svg>
