<svg width="40" height="40" viewBox="0 0 40 40" fill="none" xmlns="http://www.w3.org/2000/svg">
<g clip-path="url(#clip0_113_94544)">
<path d="M31.2388 28.944V3.844C31.239 3.53231 31.1674 3.22477 31.0297 2.94516C30.892 2.66555 30.6918 2.42137 30.4446 2.23151C30.1974 2.04164 29.9098 1.91119 29.6042 1.85024C29.2985 1.78929 28.9829 1.79947 28.6818 1.88L13.3408 5.971C12.9082 6.08674 12.5259 6.34192 12.2531 6.697C11.9803 7.05207 11.8322 7.48722 11.8318 7.935V29.481C10.8507 28.8981 9.6905 28.6936 8.56923 28.9059C7.44796 29.1182 6.44283 29.7327 5.74277 30.634C5.0427 31.5352 4.6959 32.6611 4.76754 33.8001C4.83918 34.939 5.32433 36.0126 6.13181 36.819C6.78685 37.4749 7.62176 37.9218 8.53086 38.103C9.43997 38.2842 10.3824 38.1917 11.2389 37.8371C12.0954 37.4825 12.8274 36.8818 13.3424 36.111C13.8574 35.3402 14.1321 34.434 14.1318 33.507V12.652L28.9408 8.7V24.931C28.2217 24.4936 27.3965 24.2615 26.5548 24.26C25.6284 24.26 24.7228 24.5347 23.9525 25.0494C23.1822 25.5641 22.5819 26.2956 22.2274 27.1515C21.8728 28.0074 21.7801 28.9492 21.9608 29.8578C22.1415 30.7664 22.5877 31.601 23.2427 32.2561C23.8978 32.9112 24.7324 33.3573 25.641 33.538C26.5496 33.7187 27.4914 33.626 28.3473 33.2714C29.2032 32.9169 29.9347 32.3166 30.4494 31.5463C30.9641 30.776 31.2388 29.8704 31.2388 28.944Z" fill="#3D3D3D"/>
</g>
<defs>
<clipPath id="clip0_113_94544">
<rect width="40" height="40" fill="white"/>
</clipPath>
</defs>
</svg>
