<svg width="24" height="24" viewBox="0 0 24 24" fill="none" xmlns="http://www.w3.org/2000/svg">
<path d="M6.31699 4.22998C6.05699 4.37098 5.82899 4.57098 5.65799 4.82298L2.31899 9.72298C2.05299 10.113 1.95999 10.571 2.01399 11.013H12L6.31699 4.22998Z" fill="#FFCE36"/>
<path d="M21.985 11.012C22.039 10.57 21.946 10.112 21.68 9.72198L18.342 4.82298C18.171 4.57098 17.943 4.37098 17.683 4.22998L12 11.012H21.985Z" fill="#FFCE36"/>
<path d="M17.684 4.23C17.412 4.083 17.105 4 16.786 4H7.21402C6.89602 4 6.58902 4.083 6.31702 4.23L12 11.012L17.684 4.23Z" fill="#FFAE00"/>
<path d="M12 11.012V21.13C12.272 21.13 12.544 21.026 12.751 20.819L21.456 12.116C21.762 11.81 21.935 11.418 21.985 11.013L12 11.012Z" fill="#FFAE00"/>
<path d="M2.01501 11.012C2.06501 11.417 2.23801 11.809 2.54401 12.115L11.247 20.818C11.455 21.026 11.727 21.129 12 21.129V11.012H2.01501Z" fill="#FF8000"/>
</svg>
