<svg width="22" height="21" viewBox="0 0 22 21" fill="none" xmlns="http://www.w3.org/2000/svg">
<path d="M18.17 11.2335C18.335 11.2335 18.497 11.2225 18.656 11.2005C18.921 11.1645 19.167 11.0895 19.399 10.9945C19.547 10.9335 19.677 10.8465 19.81 10.7655C19.889 10.7175 19.974 10.6765 20.047 10.6225C20.162 10.5365 20.262 10.4335 20.364 10.3335C20.438 10.2605 20.514 10.1895 20.58 10.1095C20.665 10.0065 20.738 9.89547 20.81 9.78247C20.872 9.68447 20.932 9.58647 20.984 9.48247C21.04 9.37147 21.088 9.25647 21.132 9.13947C21.177 9.01847 21.214 8.89547 21.245 8.76947C21.273 8.65747 21.299 8.54447 21.316 8.42947C21.337 8.28647 21.343 8.14247 21.347 7.99647C21.35 7.89047 21.356 7.78547 21.349 7.67847C21.337 7.51147 21.304 7.34447 21.267 7.17847C21.248 7.09147 21.24 7.00447 21.214 6.91847C21.138 6.66847 21.038 6.42247 20.901 6.18647C20.901 6.18647 20.901 6.18347 20.899 6.18247L17.866 0.985468C17.772 0.825468 17.64 0.695468 17.484 0.606468C17.406 0.561468 17.323 0.527468 17.235 0.503468C17.148 0.480468 17.057 0.467468 16.964 0.467468H5.03404C4.94104 0.467468 4.85004 0.479468 4.76304 0.503468C4.67604 0.526468 4.59204 0.561468 4.51404 0.606468C4.35804 0.695468 4.22604 0.825468 4.13204 0.985468L1.09904 6.18247C1.09904 6.18247 1.09904 6.18547 1.09704 6.18647C0.960038 6.42247 0.859038 6.66847 0.784038 6.91847C0.758038 7.00447 0.750038 7.09147 0.731038 7.17847C0.695038 7.34447 0.661038 7.51147 0.649038 7.67847C0.642038 7.78447 0.649038 7.89047 0.651038 7.99647C0.654038 8.14147 0.661038 8.28647 0.682038 8.42947C0.699038 8.54447 0.725038 8.65747 0.753038 8.76947C0.784038 8.89547 0.821038 9.01847 0.866038 9.13947C0.910038 9.25647 0.958038 9.37147 1.01404 9.48247C1.06604 9.58647 1.12604 9.68447 1.18804 9.78247C1.26004 9.89547 1.33304 10.0065 1.41804 10.1095C1.48404 10.1895 1.56004 10.2595 1.63404 10.3335C1.73604 10.4345 1.83604 10.5365 1.95104 10.6225C2.02504 10.6775 2.10904 10.7175 2.18804 10.7655C2.32104 10.8475 2.45104 10.9335 2.59904 10.9945C2.83104 11.0895 3.07604 11.1645 3.34204 11.2005C3.50104 11.2225 3.66304 11.2335 3.82804 11.2335C5.38004 11.2335 6.69104 10.2435 7.19004 8.86347C7.23604 8.73647 7.28504 8.61047 7.31704 8.47647C7.33004 8.42147 7.37204 8.39347 7.41304 8.39347C7.45404 8.39347 7.49604 8.42147 7.50904 8.47647C7.88304 10.0565 9.30304 11.2325 10.998 11.2325C12.693 11.2325 14.113 10.0565 14.487 8.47647C14.5 8.42147 14.542 8.39347 14.583 8.39347C14.624 8.39347 14.666 8.42147 14.679 8.47647C15.053 10.0565 16.473 11.2325 18.168 11.2325L18.17 11.2335Z" fill="#B0B8C1"/>
<path d="M18.8661 12.7404C18.6371 12.7714 18.4031 12.7874 18.1711 12.7874C16.788 12.7874 15.5181 12.2454 14.5861 11.3384C13.6541 12.2444 12.3831 12.7874 11.0011 12.7874C9.61905 12.7874 8.34805 12.2454 7.41605 11.3384C6.48405 12.2444 5.21305 12.7874 3.83105 12.7874C3.59905 12.7874 3.36505 12.7714 3.13605 12.7404C2.95405 12.7154 2.77705 12.6794 2.60205 12.6344V18.2084C2.60205 19.2514 3.54105 20.1904 4.58405 20.1904H8.46605V16.7384C8.46605 16.1124 8.98805 15.6954 9.50905 15.6954H12.4911C13.1171 15.6954 13.5341 16.2174 13.5341 16.7384V20.1904H17.4161C18.4591 20.1904 19.3981 19.2514 19.3981 18.2084V12.6344C19.2241 12.6794 19.0461 12.7154 18.8641 12.7404H18.8661Z" fill="#B0B8C1"/>
</svg>
