<svg width="24" height="24" viewBox="0 0 24 24" fill="none" xmlns="http://www.w3.org/2000/svg">
<path d="M5.40003 16.0101H1.71003C1.20003 16.0101 0.780029 15.5901 0.780029 15.0801V8.9201C0.780029 8.4101 1.20003 7.9901 1.71003 7.9901H5.40003V16.0101ZM5.40003 16.0101V7.9901L13.55 2.6701C14.27 2.2001 15.22 2.7201 15.22 3.5701V20.4101C15.22 21.2701 14.27 21.7801 13.55 21.3101L5.40003 16.0101Z" fill="#687680"/>
<path d="M20.24 6.55005C21.47 7.99005 22.23 9.92005 22.23 12.05C22.23 14.18 21.48 16.11 20.24 17.55M17.77 9.25005C18.37 10 18.74 10.98 18.74 12.05C18.74 13.12 18.38 14.1 17.77 14.85" stroke="#A6B0BA" stroke-width="2" stroke-miterlimit="10" stroke-linecap="round" stroke-linejoin="round"/>
</svg>
