<svg width="24" height="24" viewBox="0 0 24 24" fill="none" xmlns="http://www.w3.org/2000/svg">
<g clip-path="url(#clip0_113_95421)">
<path d="M21.36 6.90001C20.4 6.66001 19.44 7.20001 19.14 8.16001L18 10.8L16.8 8.70001L13.5 2.58001C13.08 1.80001 12.18 1.50001 11.4 1.92001C10.62 2.34001 10.38 3.24001 10.8 4.02001L13.62 9.30001L12.96 9.66001L9.30001 3.78001C8.82001 3.06001 7.86001 2.82001 7.20001 3.24001C6.48001 3.66001 6.30001 4.62001 6.72001 5.40001L10.32 11.22L9.84001 11.7L6.00001 7.20001C5.46001 6.54001 4.50001 6.48001 3.84001 7.02001C3.18001 7.56001 3.12001 8.52001 3.66001 9.18001L7.62001 13.92L7.02001 14.52L3.96001 11.34C3.36001 10.74 2.40001 10.68 1.74001 11.28C1.08001 11.88 1.14001 12.84 1.74001 13.5L7.50001 19.5C9.78001 22.38 13.86 23.28 17.1 21.36C18.9 20.34 20.1 18.66 20.58 16.8L22.62 9.18001C22.92 8.16001 22.32 7.20001 21.36 6.90001ZM15.42 16.38L15.06 15.78C14.4 14.64 14.82 13.14 15.96 12.48L17.34 11.64C16.38 13.08 15.72 14.7 15.42 16.38Z" fill="#9AA4AE"/>
</g>
<defs>
<clipPath id="clip0_113_95421">
<rect width="24" height="24" fill="white"/>
</clipPath>
</defs>
</svg>
