<svg width="24" height="25" viewBox="0 0 24 25" fill="none" xmlns="http://www.w3.org/2000/svg">
<path fill-rule="evenodd" clip-rule="evenodd" d="M16.8869 6.97348C16.887 7.6163 16.7604 8.25284 16.5145 8.84675C16.2686 9.44067 15.9081 9.98032 15.4536 10.4349C14.9991 10.8895 14.4595 11.2501 13.8656 11.4962C13.2718 11.7422 12.6352 11.8689 11.9924 11.869C10.6942 11.8691 9.44908 11.3535 8.53099 10.4356C7.61291 9.51772 7.09706 8.27271 7.09693 6.97448C7.09686 6.33166 7.22341 5.69512 7.46935 5.10121C7.71528 4.50729 8.07579 3.96763 8.53029 3.51305C9.44818 2.59496 10.6932 2.07911 11.9914 2.07898C13.2897 2.07885 14.5348 2.59444 15.4529 3.51234C16.3709 4.43023 16.8868 5.67525 16.8869 6.97348ZM11.9919 13.3665C4.94293 13.3665 2.20093 17.8525 2.20093 19.9395C2.20093 22.0255 8.03793 22.5815 11.9919 22.5815C15.9459 22.5815 21.7829 22.0255 21.7829 19.9395C21.7829 17.8525 19.0409 13.3665 11.9919 13.3665Z" fill="#B0B8C1"/>
</svg>
